<?xml version="1.0" encoding="utf-8"?>
<!-- Generator: Adobe Illustrator 19.2.0, SVG Export Plug-In . SVG Version: 6.00 Build 0)  -->
<svg version="1.1" id="Layer_1" xmlns="http://www.w3.org/2000/svg" xmlns:xlink="http://www.w3.org/1999/xlink" x="0px" y="0px"
   viewBox="0 0 529.5 216" style="enable-background:new 0 0 529.5 216;" xml:space="preserve">
<style type="text/css">
  .Arched_x0020_Green{fill:url(#SVGID_1_);stroke:#FFFFFF;stroke-width:0.25;stroke-miterlimit:1;}
  .st0{fill-rule:evenodd;clip-rule:evenodd;}
  .st1{fill-rule:evenodd;clip-rule:evenodd;fill:#FFFFFF;}
  .st2{fill:#EF3E42;}
  .st3{fill:#FFFFFF;stroke:#FFFFFF;}
</style>
<linearGradient id="SVGID_1_" gradientUnits="userSpaceOnUse" x1="0" y1="216" x2="0.7071" y2="215.2929">
  <stop  offset="0" style="stop-color:#20AC4B"/>
  <stop  offset="0.9831" style="stop-color:#19361A"/>
</linearGradient>
<g>
  <path class="st0" d="M55.3,136.9c-1,0.7-1.4-1.1-2.3-0.6c-0.6,0.5,0.5,1.4,0,2c-1.5,1.4-1.8-1.7-3.5,0.1c-1.1,0.9,1.6,2.9,1.2,4
    c-0.5,0.3-0.4,0.7-1,1c-1.9,0.2-1.7-2.4-3.1-3.3c-1,2.2,1.5,4.3,2.2,6.5c0.9,2.8,0.4,5.2-0.5,7.3c-6.3,3.7-11.8,4.7-17.9,7.6
    c-4.9-0.2-6.7-8.2-10.3-14.4c-3.7-6.4-10-12.2-8.1-16.8c3.4-1.5,10.5-10.5,15.1-11.8c4.7-1.4,7.5,4.4,11.1,8.4
    c1.1-1.2-2.1-3.5-0.3-4.5c1.7-1.3,2.2,2.2,3.5,2.7c2.1-0.5,0.9-1.9,1.5-2.8c1.1-1,1.3,1.1,2.3,0.6c0.9-0.5-0.6-1.6,0.3-2.1
    c1.1-0.3,2,0.4,3.3-0.4c3,3,4.5,8.9,7.9,13C56.8,134.6,55.6,135.6,55.3,136.9z M52.7,127.8c-0.6-0.7-1-2.5-1.8-2.5
    C51.6,126,51.9,127.8,52.7,127.8z M42.8,126.1c-1.1,0.5-0.1,0.8,0.5,0.1c0.4-0.6,0.4-1.2,1-1.7c0.7,0,1.4,0.2,2.1,0.3
    c0.8-0.7,1.4-1.4,0.9-2.5C46.5,125.2,43.6,123.2,42.8,126.1z M50.7,129.7c0.6,0.5,0.8,2.6,1.8,1.7C52,130.6,51.6,129.2,50.7,129.7z
     M50.6,132.1C49.8,130.1,49.3,132,50.6,132.1L50.6,132.1z M47.8,131.4c0.6,0.8,1,2.5,1.9,2C49.1,132.8,48.9,130.5,47.8,131.4z
     M46.2,132.7c0.4,0.5,0.6,2,1.4,1.1c-0.3-0.5-0.6-1-0.8-1.5C46.6,132.5,46.4,132.6,46.2,132.7z M46.1,135.9c-0.6-1-1.1-2-1.7-2.9
    C43.3,133.5,45.3,136.4,46.1,135.9z M39.7,134.9c-1-2.7-3.2-8.1-4.7-10.2c-0.7-1-2.8-2.9-2.6-2.4c1.6,4.1,6.2,8.6,6.4,13.1
    c3.5,3.4,7.7,9.9,8.9,14C47.3,144.7,43.1,138.7,39.7,134.9z M35.4,157.3c-0.7-0.2-1.1-1.6-2-0.8c-0.7,0.7-0.7,1.6-1.8,2.2
    c-1.2,0.3-1.8-2-3.1-1.3c-1,1.4,1.6,2.2,2.6,2.4c4.2-2.2,10.1-3.9,13.9-5.7c0.5-0.2,2.1-0.5,1.6-1.3
    C42.8,154.5,39.5,154.2,35.4,157.3z M21.5,124.3c-3.6,2.7-8.2,5.8-8.1,8.2c0.5-0.5,1.5-2.8,3.6-2.5c1.7-2.2,2.6-4.6,6.1-5.1
    c0.3-1.7,3-2.8,3.7-4.5C25.2,122,23.4,122.9,21.5,124.3z M34.1,135.4c2.9,3.7-5.1,5.8-5.8,7.6c1.6-1.1,2.9-0.9,4.1-0.4
    c-0.5-0.7-0.9-1.4-0.3-1.8c0.7,0.2,1.1,1.4,1.9,1.2c-0.7-1-0.8-1.9,0.2-2.4c2.2,0.6,4,2.9,6,4.3C38.1,141.2,35.6,137.9,34.1,135.4z
     M42.4,152.5c-1.6,0.3-3.3,0.4-5.1,1.4c-2.4-1.9-7.1,0.2-5.7,2.9c0.2-0.9,0.8-1.8,2.1-2.4c0.6,0.4,1.1,0.8,1.6,1.4
    C37.5,154.2,42.5,152.8,42.4,152.5z M18.6,130.3c-2.3,1-4.8,2.3-3.7,3.7c0.5-1.2,3-1.8,4.2-2.8c0.1-2.9,7.1-5.2,6.2-7.5
    C24.3,126.2,19.5,127.7,18.6,130.3z M17.1,139.8c2.5,3.5,5.4,8.8,7.2,11.8C24,147.4,20.6,141.6,17.1,139.8z"/>
  <path class="st0" d="M96.6,102c1.4-0.5,2.7,2,4.4,2.4c-1.8-2.2-5-4.4-4.1-9.1c0.2-1,0.7-2.6,1.7-3c-0.1,2.9,1.1,4.6,1.7,6.8
    c0.4-1.9-1.8-5-1.4-7.8c0.2-1.2,1.2-1.4,1-2.7c1.7,2.9,1.6,7.6,4.4,9.5c-1.5-3.8-5.8-10.5-1.7-13.9c-0.2,1.6,0.4,2.3,0.3,3.7
    c0.1-3.4-0.2-6.5,1.4-9.1c0.3-0.5,1.2-0.7,1.7-1.4c1.2-1.6,1.6-4,4.1-4.4c-0.1,3.8,0.8,6.6,1.4,9.8c0.1-3.3-2-10.5,0.7-13.5
    c1,0.5,0.9,2,1,3.4c0.6-1.7-0.8-5.6,1.4-6.4c0.9,2.9,0.9,6.6,1.7,9.5c0.4-2.7-1.2-6.5-0.7-10.5c2-2.3,2.7-5.9,5.8-7.1
    c-0.6,0.6-0.3,2-0.3,3c0.5-1.1,0.7-2.5,0.7-4.1c1.1-1.3,2.5-2.2,3.7-3.4c0.8,1.5,0.1,4.4,0.3,6.4c0.7-2.1,0.2-5.2,0.7-7.4
    c3.2-1.7,4.6-5.1,8.5-6.1c-0.6,1.7-0.2,4.5-0.3,6.8c0.7-3.5,0.1-8.2,3-9.5c0.8,0.1,0.1,1.7,0.3,2.4c0.6-3.5,3.3-4.9,6.1-6.1
    c-0.5,0.4-0.3,1.5-0.3,2.4c0.5-0.6,0.6-1.6,0.7-2.7c4.8-3.1,11.6-6,19.3-5.1c0,1.8,0.6,3,0.3,5.1c-2.1-0.3-3.1,0.5-5.1,0.3
    c0.8,0.8,3,0.1,4.4,0.3c0,1.3-0.6,2.1-1,3c-1.1,0-2.3,0-3.4,0c0.4,0.8,2.1,0.1,3,0.3c-0.1,1.9-1.5,2.6-2,4.1c-2,0-4.1,0-6.1,0
    c1.1,0.8,3.7,0.1,5.4,0.3c-1.8,5-3.3,10.2-6.4,13.9c-1.9-0.2-3.6-0.5-5.4-0.7c1.4,0.9,3.4,1.1,5.4,1.4c-1.5,3.5-3.2,6.8-5.8,9.1
    c-3.8-0.6-7.3-1.5-10.8-2.4c2.8,1.3,6.3,2.1,9.8,2.7c-1.3,2.6-2.9,4.7-4.4,7.1c-3.4-0.1-5.6-1.4-8.5-2c1.9,1.2,4.6,1.7,7.1,2.4
    c-1.6,2.4-3.4,4.5-5.1,6.8c-2.3-0.3-4.3-0.9-6.4-1.4c1.4,0.9,3.4,1.1,5.1,1.7c-0.3,1.3-1.4,1.8-2,2.7c-1.9-0.4-3.7-0.8-5.8-1
    c0.9,0.7,2.2,0.9,3.7,1c-1.8,0.9-4.3-0.4-6.4-0.3c1.8,1,4.6,0.8,6.8,1.4c-2.1,2.9-4.1,6.1-6.8,8.5c-2.9-0.3-5.8-0.8-8.5-1.4
    c2.3,1.1,4.9,1.8,8.1,2c-1.7,3.4-5.1,5-8.1,7.1c-2.2-0.7-3.8-1.9-6.4-2c1.5,0.6,3,1.3,4.4,2c-2.4-0.3-5.9-2.4-10.2-2
    c1.9,0.6,4.4,0.6,6.1,1.4c-1.1,0.4-4.9-1.1-6.8,0c0.8,0.3,7,0.9,5.1,1c-2.1,0.2-5.1-0.5-6.1,0.7c1.8,0.9,4,1.4,6.8,1.4
    c1.6,0.5-3.1,0.4-4.4,0.3c-1.2-0.1-2.4-0.7-3-0.3c-0.1,0.9,0.5,1.1,1.4,1c-0.5,1.1-1.7-0.5-2,0.3c0.4,1.3,3.2,0.2,4.1,1
    c1.2,0,2.5,0,3.7,0c0.8,0,0.6,0.4,0,0.3c-0.6,0-1.1,0-1.7,0c-2.3,0-4.5,0-6.8,0c0.2,1.5,1.9,1.5,3.4,1.7c-1.3,1.3-3.1-1.2-4.4,0
    c0.3,2,4,0.8,5.4,1.7c0.4,0,2.4-0.1,1.4,0.3c-2.5-0.2-5.3-0.2-7.4-0.7c0.1,0.5-0.3,0.6-0.3,1c1.3,0.1,5.8,1.4,5.1,1.4
    c-1.2,0-4.7-1.4-6.4,0.7c0.5,0.2,5.5,2.5,3.7,1.7c-0.8-0.4-1.9-0.2-3.4-0.7c-0.9,0.5,0.6,1.4,1,1.7c0.7,0.8-1.6-0.4-1.7-1
    c-5.3,10.1-9.4,21.5-14.6,31.8c0.8-6.9,5-15.3,8.1-22.7c1-2.3,4.8-8.3,1.4-9.5c0.3-0.6,1.4,0.9,2,1c0.7-0.1,0.3-1.3,1-1.4
    c-0.9-0.7-2.6-0.8-4.1-1c0.6-0.8,2.6-0.1,3.7-0.3c-0.9-0.8-2.1-1.3-3-2c1-0.6,2.4,1.4,4.1,1.4c0.3-0.3,0.5-0.6,0.7-1
    c-0.9-2-3.4-2.5-4.4-4.4c1,0.2,3.1,2.3,4.7,3c0.8,0.1,0.4-1,1-1c-0.9-1.1-2.5-1.5-3.7-2.4c0.8-0.6,1.9,1.3,3.4,1
    c0.6-0.5-1.5-1.2-1.7-2c0.5-0.4,1.8,1.3,3,1.4c0.5-2-2.7-2.5-3.7-4.1c1-0.3,2.4,1.9,4.1,2c0.3-1.3-1.9-2.9-2.4-4.4
    c1.5,0.7,1.9,2.6,3.4,3.4c-0.5-1.8-0.9-3.6-1.7-5.1c1,1.1,1.8,2.5,2,4.4c0.8-0.4,1.1-1.4,1.4-2.4C99.5,103.7,97.9,103,96.6,102z
     M153.8,41.4C151.4,43.2,154.5,40.9,153.8,41.4L153.8,41.4z M92.2,122.3c-2.1,4.4-4.2,9.1-5.4,13.9c7.4-18.8,17.7-35.7,28.4-51.4
    c5.4-7.9,11-15.7,17.3-22.7c6.3-6.9,13.3-13,19.6-19.6C127.1,63.5,106.7,91.2,92.2,122.3z M143.7,44.8c0-0.5,0.1-2.8-0.3-1.7
    C143.3,43.6,143.2,45.9,143.7,44.8z M137.9,48.2c0-0.4,0-2.4-0.3-1.4C137.5,47.3,137.5,49.3,137.9,48.2z M153.5,47.5
    C151.3,47.1,152.7,48.6,153.5,47.5L153.5,47.5z"/>
  <g>
    <path class="st0" d="M42.8,176c1.9,0.3,3.8-0.6,3.5-1.9C43.5,171.4,38.3,175.2,42.8,176z M87,161.3c2-1.7,1.3-4.3,4.6-5.3
      c-1-0.1-0.8,0.3-1.9-0.1c-1.3,0.5-1.9,1.6-3.4,1.8c-0.6-0.5-2.6-0.6-3-1.1c2.6-1.3,5.3-3.5,5.7-5.8c-1.8,0.9-2.4,3.6-4.7,4.4
      c-0.4-0.2-0.5-0.4-1.2-0.4c-2,0.7-3.6,1.8-6,2c-0.3-0.3,0.2-0.4,0.4-0.6c-0.6-0.2-0.5,0.3-1,0.2c0.2-1-0.8-2.2-0.8-3.4
      c0-1.2,1.3-2.6-0.5-3.5c-1.9,0.8-0.2,2.5-0.6,3.9c-0.1,0.3-0.5,0.5-0.7,0.8c-0.4,0.8,0.1,2-1.4,2.3c-1.2-1-3.1-1.9-3.8-3
      c-0.3-0.4,0-1.1-1-1.2c0.7,1.5,0.9,3.2,1.9,4.6c-2.1,2.1-2.9,0.8-4.8-0.4c-0.7-0.5,1.9-0.9,0.6-2.2c-0.5-0.5-1.9-1.9-2.5-2.3
      c-1-0.8-5.8,0.2-6.2-0.4c-0.2-0.4,0-0.8-0.2-1.2c-0.2-0.5-1.3-1-1.8-1.6c-0.7-0.7-1,0.9-1,2c0.1,4.4,5.9,8.8,5.7,8.3
      c-1,1.2-2.7,1.8-4.9,1.8c-1.8-0.7-4.3-2.1-6.6-2.1c-0.8,1,1.4,1.2,2.5,1.6c2.7,0.9,5.9,2.3,4.5,3.9c0.3,0.3,1,0.1,1.7,0.3
      c0.5,0.6-0.8,1.6-1.6,1.9c-2.7,1.2-8.3-0.2-8.9,1.8c3.6,2.2,7.6-1.5,12.3,0.1c0.9,0.8,1.5,2.3-1,2.5c-0.4,0.6,1.4,0.5,1,1.1
      c0,0.4-0.6,0.1-0.7,0.5c0.3,0.1,0.7,0.1,0.5,0.3c-0.4,1.5-3.4,3.4-0.8,3.9c1.2-0.7,1.2-2.5,3.7-1.7c0.5,1.3-1.7,2-2.3,3.2
      c-0.7,0.5-3.2,1.6-1.7,2.3c3.1-1.1,3.9-4.6,7.7-4.9c0.9,0.9,0.8,2.8,0.4,4c-0.3,1-3.2,3.7-1.1,4.8c2.1,1.1,4.8-0.8,5.1-1.9
      c0.6-1.7-3.2-3.3-2.5-5.1c0.2-0.5,0.8-1.4,1.5-1.8c0.7-0.5,3.3-1.5,4.9-1.8c1.8-0.3,3.2-0.5,5.2-0.1c2.9,1.6,6.2,2.8,7.6,4.8
      c0.5,0.7,0.2,1.9,2.2,2c1.1-0.6,0-1.4-0.9-1.8c-0.6-1.1-1.4-2.2-2.6-3.2c0.1-0.4,0.2-0.9,0.6-1.4c1-0.3,1.9-0.6,2.5-1.3
      c0.4-0.1,0.7,0.2,1.5,0.3c0.5-0.1,0.7-0.6,1.4-0.6c3.2,0.3,5.3,1,8.2,1.6c2.6,0.5,3.5,1.7,5.7,2.3c2.3,0.6,3.2,1.1,5.2,1.3
      c1-0.3,1.1-0.8,0.8-1.4c-2.9-0.9-3.4-2.3-6.6-2.5c-0.7-0.1-1.6,0.2-2.4,0c-2.5-0.4-4.7-1.7-7.4-2.2c0-0.8-1.5-1.3-2.5-1.8
      c0.3-0.3,0.8-0.3,0.6-0.7c-0.2-0.3-1.1-0.3-1.1-0.7c0.5-0.1,0.3-0.9,1.2-0.6c0.4-0.4-0.8-0.4-0.1-0.6c2.1-0.7,4.7,1.2,6.5,0.4
      c-0.2-1.5-5.4-0.5-5.7-1.8c0.8-0.1,2.2,0.3,2.5-0.4c-1.4-0.4-2.8,0.3-4.3,0.1c-0.9-0.1-1.6-0.6-2.5-0.8c-0.3-0.1-2.4,0-2.2-0.6
      c0.4,0,0.8,0.5,1.2,0.2c-0.5-0.2-1.3-0.3-1.4-0.6c1.1-0.7,2.8-0.8,4.4-1C97,160.7,89,162.8,87,161.3z"/>
  </g>
  <path class="st0" d="M61.4,161.4L77,162c0,0,3.6-7.2-2.9-21c-6.5-13.8-14.5-16.6-16.3-17.4c-1.9-0.8-3.7,1.8-3.7,1.8l1.7,4.7
    c0,0-1.4-2.5,1.7,1.4c3.1,3.9,4.8,8.7,5.4,11.9C63.5,146.6,61.4,161.4,61.4,161.4z"/>
  <path class="st1" d="M60.7,130.3c0,0,11,5.1,13.1,21.9C69.3,141.3,70.5,140,60.7,130.3z"/>
  <path class="st1" d="M63.2,135.5c0,0,5.8,6.9,2.3,16C65.7,144.2,66.9,144.1,63.2,135.5z"/>
</g>
<g>
  <g>
    <polygon class="st2" points="522,163.9 140,164.6 522,127.1    "/>
    <path class="st2" d="M156.7,142.2c-3.1,0.2-4.6,0.4-7.7,0.6c-0.7,5.8-1.1,8.7-1.8,14.6c-2.9,0.3-4.3,0.4-7.2,0.7
      c3-24.7,5.9-49.4,9-74c3.7,0,5.6,0,9.3,0c3,23.8,6,47.6,9,71.4c-3.6,0.3-5.4,0.5-9,0.9C157.6,150.6,157.3,147.8,156.7,142.2z
       M155.1,126.4c-0.9-8.4-1.4-12.6-2.4-21c-0.9,8.5-1.4,12.7-2.4,21.3C152.3,126.6,153.3,126.5,155.1,126.4z"/>
    <path class="st2" d="M190.1,153.2c-8.1,0.8-12.1,1.2-20.2,2c0-23.7,0-47.4,0-71.2c3.6,0,5.4,0,8.9,0c0,17.7,0,35.4,0,53.1
      c4.5-0.3,6.8-0.5,11.3-0.8C190.1,143,190.1,146.4,190.1,153.2z"/>
    <path class="st2" d="M212.8,151c-8.1,0.8-12.1,1.2-20.2,2c0-23,0-46,0-69c3.6,0,5.4,0,8.9,0c0,17.2,0,34.3,0,51.5
      c4.5-0.3,6.8-0.5,11.3-0.8C212.8,141.1,212.8,144.4,212.8,151z"/>
    <path class="st2" d="M224,149.9c-3.6,0.3-5.4,0.5-9,0.9c0-22.3,0-44.6,0-66.9c4.7,0,7.1,0,11.8,0c2.8,0,6,0.2,8.5,3.4
      c2.7,3.5,4.3,9.9,4.3,16.9c0,6.1-1.1,12-3.2,16c-2.2,4.2-5.1,5.3-7.9,5.5c-1.8,0.1-2.7,0.2-4.5,0.3C224,135.5,224,140.3,224,149.9
      z M226.3,111.7c2-0.1,4.5-0.5,4.5-6.6c0-5.8-2.2-6.2-4.2-6.2c-1,0-1.5,0-2.6,0.1c0,5.1,0,7.7,0,12.8
      C224.9,111.8,225.4,111.8,226.3,111.7z"/>
    <path class="st2" d="M258.7,146.6c-1.7-9.4-2.5-14.2-4.2-23.7c-1.1,0.1-1.7,0.1-2.8,0.2c0,9.7,0,14.5,0,24.2
      c-3.6,0.3-5.4,0.5-9,0.9c0-21.4,0-42.8,0-64.2c5.9,0,8.8,0,14.7,0c2.5,0,5.3,0.8,7.5,3.8c2.3,3.2,3.5,8.7,3.5,14.7
      c0,8.1-1.7,13-5.1,16.6c2.1,10.7,3.1,16.1,5.2,26.6C264.6,146,262.6,146.2,258.7,146.6z M254.9,109.3c1.9-0.1,4.3-0.8,4.3-6.2
      c0-2.1-0.5-4.1-1.4-5.1c-0.7-0.8-1.7-0.8-2.5-0.8c-1.4,0-2.1,0-3.6,0.1c0,4.8,0,7.3,0,12.1C253,109.4,253.7,109.4,254.9,109.3z"/>
    <path class="st2" d="M297.9,113.5c0,9.7-3.3,31.3-13.8,31.5c-10.8,0.3-13.8-20-13.8-30.2c0-10.7,3.4-31.8,13.8-31.9
      C294.2,82.9,297.9,103,297.9,113.5z M279.7,114.5c0,5.8,0.3,17.1,4.3,16.8c4-0.3,4.3-11.4,4.3-17.2c0-5.8-0.4-17.5-4.3-17.5
      C280.2,96.7,279.7,108.5,279.7,114.5z"/>
    <g>
      <path class="st2" d="M340.2,140.1c-1.7,0.2-2.6,0.2-4.3,0.4c-0.5-2.3-0.7-3.5-1.2-5.9c-1.8,5-5.1,7.5-7.8,7.6
        c-11.8,0.3-12.6-19.7-12.9-28.1c-0.3-7.4,1-15.8,3.4-21.9c2.7-7,6.2-9.3,10.5-9.3c6.7,0,11.2,6.7,12.4,19.5
        c-3.4,0.8-5.2,1.2-8.6,2c-0.3-4.6-1.3-8.9-4-8.8c-4.1,0.1-4.3,11.1-4.3,17c0,3.4,0.1,7.6,0.8,10.6c0.7,3.3,2.1,5.4,4,5.3
        c2.3-0.2,4-3,4-7.5c-1.9,0.1-2.9,0.2-4.8,0.3c0-4.9,0-7.3,0-12.2c5.2-0.2,7.8-0.3,13-0.6C340.2,119.1,340.2,129.6,340.2,140.1z"
        />
      <path class="st2" d="M359.7,138.2c-1.7-8.2-2.5-12.3-4.2-20.6c-1.1,0.1-1.7,0.1-2.8,0.2c0,8.4,0,12.6,0,21.1
        c-3.6,0.3-5.4,0.5-9,0.9c0-18.7,0-37.3,0-56c5.9,0,8.8,0,14.7,0c2.5,0,5.3,0.7,7.4,3.3c2.3,2.8,3.5,7.5,3.5,12.8
        c0,7-1.7,11.3-5.1,14.4c2.1,9.3,3.1,13.9,5.2,23C365.6,137.6,363.6,137.8,359.7,138.2z M356,105.9c1.9-0.1,4.2-0.7,4.2-5.4
        c0-1.8-0.5-3.6-1.4-4.4c-0.7-0.7-1.7-0.7-2.5-0.7c-1.4,0-2.2,0-3.6,0.1c0,4.2,0,6.3,0,10.5C354,106,354.7,105.9,356,105.9z"/>
      <path class="st2" d="M387.3,125.3c-3.1,0.2-4.6,0.4-7.7,0.6c-0.7,4.2-1.1,6.3-1.8,10.5c-2.9,0.3-4.3,0.4-7.2,0.7
        c3-17.8,5.9-35.6,9-53.4c3.7,0,5.6,0,9.3,0c3,16.9,6,33.9,9,50.8c-3.6,0.3-5.4,0.5-9,0.9C388.3,131.4,387.9,129.4,387.3,125.3z
         M385.8,114.1c-0.9-6-1.4-9-2.4-15c-0.9,6.1-1.4,9.1-2.4,15.3C382.9,114.3,383.9,114.2,385.8,114.1z"/>
      <path class="st2" d="M409.1,133.4c-3.6,0.3-5.4,0.5-9,0.9c0-16.9,0-33.7,0-50.6c4.7,0,7.1,0,11.8,0c2.8,0,6,0.1,8.5,2.5
        c2.7,2.6,4.3,7.4,4.3,12.6c0,4.6-1.1,9-3.2,12c-2.2,3.2-5.1,4.1-7.9,4.2c-1.8,0.1-2.7,0.2-4.5,0.3
        C409.1,122.6,409.1,126.2,409.1,133.4z M411.5,104.6c2-0.1,4.5-0.4,4.5-5c0-4.4-2.2-4.7-4.2-4.6c-1,0-1.5,0-2.6,0.1
        c0,3.9,0,5.8,0,9.6C410.1,104.7,410.5,104.6,411.5,104.6z"/>
      <path class="st2" d="M452.4,129.2c-3.5,0.3-5.3,0.5-8.8,0.9c0-7.2,0-10.9,0-18.1c-2.7,0.2-4.1,0.2-6.8,0.4c0,7.3,0,11,0,18.3
        c-3.5,0.3-5.3,0.5-8.8,0.9c0-16,0-32,0-48c3.5,0,5.3,0,8.8,0c0,7,0,10.4,0,17.4c2.7-0.1,4.1-0.1,6.8-0.3c0-6.9,0-10.3,0-17.1
        c3.5,0,5.3,0,8.8,0C452.4,98.8,452.4,114,452.4,129.2z"/>
      <path class="st2" d="M465.7,128c-3.6,0.3-5.4,0.5-8.9,0.9c0-15.1,0-30.2,0-45.2c3.6,0,5.4,0,8.9,0
        C465.7,98.4,465.7,113.2,465.7,128z"/>
      <path class="st2" d="M494.1,110c-0.5,9.6-5.5,16.4-12,17c-10.6,0.9-13.2-13-13.2-20.8c0-8.3,2.2-23,13.1-23.3
        c7.2-0.2,11.6,6.3,12.2,16.7c-3.3,0.4-4.9,0.6-8.2,0.9c0.1-3.6-0.8-8.1-3.8-8c-3.9,0.1-4.1,9.1-4.1,13.2c0,4.3,0.2,11.7,4.2,11.4
        c2.7-0.2,3.8-3.8,3.9-7.4C489.2,109.9,490.8,110,494.1,110z"/>
      <path class="st2" d="M504.3,110.4c0.8,3.6,2.7,4.7,5.3,4.5c1.1-0.1,3.4-0.5,3.4-2.7c0-2.4-2.2-2.8-3.5-3
        c-5.4-1.1-11.9-2.9-11.9-12.7c0-4,1.4-8.1,3.7-10.4c2.3-2.3,5.4-3.1,8.3-3.1c5,0,9.8,2.8,11.6,9.6c-2.9,1.3-4.4,1.9-7.3,3.2
        c-0.8-2.9-2.4-3.9-4.7-3.9c-1.2,0-2.9,0.5-2.9,2.7c0,2.1,2.1,2.5,3.2,2.8c2.7,0.7,5.7,1.2,8.2,2.9c2.8,1.9,4.3,5.5,4.3,9.8
        c0,9.4-6.9,13.8-12.9,14.4c-6.1,0.6-11.4-2.5-13-11.4C499.4,111.9,501,111.4,504.3,110.4z"/>
    </g>
    <path class="st2" d="M311.3,123.4c-1.4,0.1-2.5,0.2-3.6,0.2c-1.1,0.1-2.1,0.1-3.2,0.2c-1.1,0.1-2.2,0.1-3.6,0.2c0-1.9,0-3.4,0-4.9
      c0-1.4,0-2.8,0-4.3c0-1.5,0-3,0-4.9c1.4-0.1,2.5-0.1,3.6-0.2c1.1,0,2.1-0.1,3.2-0.1c1.1,0,2.2-0.1,3.6-0.2c0,1.8,0,3.4,0,4.8
      c0,1.4,0,2.8,0,4.2C311.3,120,311.3,121.5,311.3,123.4z"/>
  </g>
  <g>
    <path class="st3" d="M413.1,157.8v1.7c-0.7,0.1-1.3,0.2-1.7,0.2c-0.3,0-0.7-0.1-1-0.2c-0.4-0.1-0.9-0.5-1.6-1.3
      c-1.3,1.1-2.7,1.6-4.3,1.6c-1.6,0-2.9-0.5-3.9-1.4c-1-0.9-1.5-2-1.5-3.4c0-1,0.3-2,1-2.9c0.7-0.9,1.7-1.6,3.1-2
      c-1-1.5-1.5-2.7-1.5-3.7c0-0.9,0.3-1.7,1-2.4c0.6-0.7,1.5-1,2.6-1c1.1,0,2,0.3,2.7,0.9c0.7,0.6,1.1,1.4,1.1,2.5
      c0,1.7-1.1,3.1-3.4,4.2l3.4,5.1c1.1-1.4,1.8-3.1,2.2-5.1l1.7,0.4c-0.5,2.3-1.5,4.3-2.9,6c0.5,0.5,1.1,0.8,1.7,0.8
      C411.8,157.9,412.3,157.9,413.1,157.8z M403.9,151.4c-1.1,0.5-1.9,1-2.3,1.5c-0.4,0.5-0.6,1.2-0.6,2.1c0,1.1,0.4,2,1.1,2.5
      c0.7,0.5,1.6,0.8,2.5,0.8c1.2,0,2.3-0.4,3.2-1.3L403.9,151.4z M404.7,149.6c1.3-0.7,2-1.3,2.3-1.7c0.3-0.4,0.4-0.8,0.4-1.2
      c0-0.6-0.2-1-0.6-1.4c-0.4-0.4-0.9-0.6-1.5-0.6c-0.6,0-1,0.2-1.4,0.5c-0.4,0.4-0.6,0.8-0.6,1.2
      C403.3,147.1,403.8,148.2,404.7,149.6z"/>
    <path class="st3" d="M423.9,159.5h-2v-16h5.7c1.8,0,3.1,0.5,3.9,1.4c0.8,1,1.3,2.1,1.3,3.3c0,1.4-0.5,2.5-1.4,3.4
      c-0.9,0.9-2.1,1.3-3.6,1.3h-3.9V159.5z M423.9,151.3h3.7c0.9,0,1.7-0.3,2.3-0.8c0.6-0.6,0.9-1.3,0.9-2.2c0-0.8-0.3-1.5-0.8-2.1
      c-0.5-0.6-1.3-0.9-2.2-0.9h-3.8V151.3z"/>
    <path class="st3" d="M446.9,159.5h-2.1l-2.9-6.9h-4.6v6.9h-1.9v-16h6.3c1.7,0,3,0.5,3.8,1.4c0.8,0.9,1.2,2,1.2,3.1
      c0,0.9-0.2,1.7-0.7,2.4c-0.5,0.8-1.2,1.3-2.3,1.7L446.9,159.5z M437.2,150.9h4.2c1.1,0,1.9-0.3,2.5-0.9c0.5-0.6,0.8-1.3,0.8-2.1
      c0-0.8-0.3-1.5-0.9-2c-0.6-0.5-1.3-0.7-2.2-0.7h-4.4V150.9z"/>
    <path class="st3" d="M452.1,159.5h-2v-16h2V159.5z"/>
    <path class="st3" d="M467.8,159.5h-1.9l-8.3-13.9l0,1.1c0,0.4,0,0.7,0,1v11.9h-1.6v-16h2.5l7.7,13l0-1.1c0-0.4,0-0.8,0-1.2v-10.8
      h1.6V159.5z"/>
    <path class="st3" d="M476.7,159.5h-2v-14.2h-4.6v-1.8h11.2v1.8h-4.6V159.5z"/>
    <path class="st3" d="M485.5,159.5h-2v-16h2V159.5z"/>
    <path class="st3" d="M501.3,159.5h-1.9l-8.3-13.9l0,1.1c0,0.4,0,0.7,0,1v11.9h-1.6v-16h2.5l7.7,13l0-1.1c0-0.4,0-0.8,0-1.2v-10.8
      h1.6V159.5z"/>
    <path class="st3" d="M517.1,151.4v8.3h-1.2l-0.6-2c-1,1.4-2.5,2.1-4.4,2.1c-2.1,0-3.8-0.8-4.9-2.4c-1.2-1.6-1.8-3.5-1.8-5.8
      c0-2.4,0.6-4.4,1.9-6.1c1.2-1.6,2.9-2.4,5.1-2.4c2.9,0,4.9,1.5,5.8,4.6l-1.9,0.5c-0.3-1.2-0.8-2.1-1.5-2.6
      c-0.8-0.5-1.6-0.8-2.5-0.8c-1.6,0-2.7,0.6-3.5,1.9s-1.1,2.9-1.1,4.8c0,2.1,0.4,3.7,1.3,4.9c0.8,1.2,2,1.8,3.4,1.8
      c1.1,0,2.1-0.4,2.8-1.1c0.8-0.7,1.1-1.8,1.1-3.1c0-0.2,0-0.5,0-0.9h-4v-1.7H517.1z"/>
  </g>
</g>
</svg>
